<?xml version="1.0" encoding="UTF-8"?><svg id="Layer_2" xmlns="http://www.w3.org/2000/svg" xmlns:xlink="http://www.w3.org/1999/xlink" viewBox="0 0 222.93 123.97"><defs><style>.cls-1{fill:url(#linear-gradient);}.cls-2{fill:#fff;}.cls-3{fill:url(#linear-gradient-3);}.cls-4{fill:url(#linear-gradient-4);}.cls-5{fill:url(#linear-gradient-2);}</style><linearGradient id="linear-gradient" x1="261.45" y1="101.16" x2="-33.75" y2="5.73" gradientTransform="matrix(1, 0, 0, 1, 0, 0)" gradientUnits="userSpaceOnUse"><stop offset="0" stop-color="#8a6c40"/><stop offset=".3" stop-color="#c8a873"/><stop offset=".47" stop-color="#c6b27f"/><stop offset=".65" stop-color="#d7c698"/><stop offset="1" stop-color="#f8f5b9"/></linearGradient><linearGradient id="linear-gradient-2" x1="266.79" y1="84.67" x2="-28.41" y2="-10.76" xlink:href="#linear-gradient"/><linearGradient id="linear-gradient-3" x1="273.03" y1="65.36" x2="-22.17" y2="-30.07" xlink:href="#linear-gradient"/><linearGradient id="linear-gradient-4" x1="277.36" y1="51.95" x2="-17.84" y2="-43.48" xlink:href="#linear-gradient"/></defs><g id="Layer_1-2"><g><path class="cls-1" d="M9.66,13.86v.39c0,.12,.02,.23,.06,.34,1.07,2.99,2.38,5.66,3.51,7.69,.08,.15,.19,.48,.19,.76v3.16c0,1.02-1.36,1.37-1.84,.47-.66-1.22-1.32-2.58-1.97-4.05l.05,2.08v22.31c0,.54-.44,.99-.98,.99h-1.95c-.54,0-.98-.44-.98-.99V27.35l.05-1.92c-1.11,3.78-2.48,7.17-3.95,9.96-.48,.91-1.85,.56-1.85-.47v-3.97c0-.33,.11-.63,.19-.77,1.89-3.4,3.94-9.93,4.93-16.17,.09-.6-.37-1.13-.97-1.13H1.13c-.54,0-.98-.44-.98-.99v-2.44c0-.54,.44-.99,.98-.99h3.63c.54,0,.98-.44,.98-.99V.99c0-.54,.44-.99,.98-.99h1.95c.54,0,.98,.44,.98,.99V7.47c0,.54,.44,.99,.98,.99h2.21c.54,0,.98,.44,.98,.99v2.44c0,.54-.44,.99-.98,.99h-2.21c-.54,0-.98,.44-.98,.99ZM42.65,47.8c-2,0-4.66-1.09-7.2-4.67-.31-.43-.89-.53-1.33-.24-3.38,2.21-7.5,3.89-12.59,4.81-.6,.11-1.15-.36-1.15-.97v-1.64c0-.48,.35-.88,.82-.97,4.72-.85,8.43-2.38,11.4-4.28,.4-.26,.55-.78,.36-1.22-.97-2.28-1.9-5.03-2.65-8.42-.1-.45-.5-.78-.96-.78h-7.51c-.52,0-.95,.41-.98,.93,0,.16-.02,.32-.03,.49-.02,.34,.13,.68,.41,.88l5.69,4.05c.26,.18,.41,.49,.41,.8v1.65c0,.81-.91,1.27-1.56,.8l-4.16-3.05c-.58-.43-1.41-.09-1.54,.62-.73,4.13-1.98,7.78-3.53,10.33-.18,.29-.49,.46-.83,.46h-1.72c-.76,0-1.25-.85-.84-1.49,2.48-3.92,3.89-9.57,4.31-15.41,.04-.57-.42-1.05-.98-1.05h-1.53c-.54,0-.98-.44-.98-.99v-1.81c0-.54,.44-.99,.98-.99h13.32c.6,0,1.06-.54,.97-1.14-.86-5.61-1.39-12.52-1.39-21.02V.99c0-.54,.44-.99,.98-.99h2c.54,0,.98,.44,.98,.99V3.48c0,8.94,.55,15.9,1.44,21.34,.08,.48,.49,.82,.97,.82h4.09c.72,0,1.19-.75,.89-1.4l-.43-.93c-.3-.65,.17-1.4,.89-1.4h1.15c.38,0,.72,.22,.89,.56l1.24,2.62c.16,.34,.51,.56,.89,.56h2.31c.54,0,.98,.44,.98,.99v1.81c0,.54-.44,.99-.98,.99h-10.78c-.64,0-1.11,.62-.95,1.24,.46,1.78,.95,3.3,1.45,4.63,.26,.69,1.16,.86,1.66,.31,1.02-1.14,1.9-2.33,2.66-3.62,.18-.3,.49-.49,.84-.49h1.57c.76,0,1.24,.84,.84,1.5-1.33,2.24-2.9,4.33-4.72,6.21-.34,.35-.38,.9-.08,1.3,1.83,2.41,3.43,2.98,4.17,2.98s1.62-.55,2.84-1.83c.61-.64,1.68-.19,1.68,.69v2.22c0,.27,0,.67-.31,.98-1.64,1.66-3.12,2.25-4.37,2.25ZM25.33,22.43h0c-.09-.52-.57-.88-1.09-.81-2.58,.36-6.08,.63-8.95,.68-.55,.01-1-.43-1-.99v-1.49c0-.54,.44-.99,.98-.99h.61c.37,0,.7-.2,.87-.53l2.23-4.31c.34-.66-.13-1.44-.87-1.44h-1.92c-.54,0-.98-.44-.98-.99v-2.25c0-.16,.04-.32,.11-.46L19.4,1c.17-.33,.5-.53,.87-.53h1.48c.74,0,1.21,.79,.87,1.45l-3.1,5.87c-.35,.66,.13,1.45,.87,1.45h.84c.36,0,.69-.2,.86-.51l1.63-2.97c.17-.32,.5-.51,.86-.51h.97c.73,0,1.21,.78,.87,1.44l-5.29,10.39c-.35,.69,.19,1.5,.96,1.43,.5-.04,.98-.09,1.44-.14,.56-.07,.95-.6,.84-1.16l-.31-1.71c-.11-.61,.35-1.16,.97-1.16h.56c.47,0,.87,.33,.96,.79l1.43,6.95c.13,.61-.34,1.19-.96,1.19h-.72c-.48,0-.89-.35-.97-.82Zm18.95-.87l-.08-.42c-.1-.51-.56-.86-1.08-.79-2.62,.32-6.11,.59-8.72,.65-.55,.01-1-.43-1-.99v-1.49c0-.54,.44-.99,.98-.99h.68c.35,0,.68-.19,.85-.5l1.69-3.01c.37-.66-.1-1.47-.85-1.47h-1.96c-.54,0-.98-.44-.98-.99v-2.25c0-.16,.14-.51,.21-.65l3.99-7.68c.17-.33,.5-.53,.87-.53h1.38c.74,0,1.21,.79,.87,1.45l-3.1,5.87c-.35,.66,.13,1.45,.87,1.45h1c.35,0,.68-.19,.85-.5l2.18-3.88c.17-.31,.5-.5,.85-.5h1.26c.75,0,1.22,.81,.86,1.47l-5.51,9.9c-.38,.69,.16,1.53,.94,1.47,.37-.03,.73-.06,1.08-.1,.57-.06,.97-.59,.87-1.15l-.28-1.6c-.11-.6,.36-1.16,.97-1.16h.75c.48,0,.88,.34,.97,.81l1.28,7.21c.11,.6-.36,1.16-.97,1.16h-.76c-.47,0-.88-.34-.96-.8Z"/><path class="cls-5" d="M78.93,14.29l-.04-.14c-.22-.72-.9-1.19-1.64-1.12-4.24,.36-12.15,.94-17,1.06-.89,.02-1.62-.7-1.62-1.59v-.7c0-.87,.69-1.57,1.56-1.59,.1,0,.19,0,.29,0,.63-.01,1.19-.4,1.43-.99,.78-1.93,2.54-6.27,3.33-8.23,.24-.6,.82-.99,1.46-.99h1.07c1.13,0,1.9,1.16,1.46,2.21l-2.3,5.46c-.46,1.08,.37,2.27,1.54,2.21,2.39-.13,4.76-.27,6.72-.4,1.05-.07,1.74-1.13,1.38-2.13-.33-.9-.65-1.79-.96-2.61-.4-1.04,.37-2.16,1.48-2.16h.72c.64,0,1.22,.38,1.46,.98,1.11,2.72,2.53,6.8,3.54,9.73,.35,1.03-.41,2.1-1.49,2.1h-.89c-.7,0-1.31-.45-1.51-1.12Zm.6,33.51h-7.16c-.87,0-1.58-.71-1.58-1.59v-.56c0-.88,.71-1.59,1.58-1.59h3.5c.86,0,1.12-.16,1.12-1.04v-4.17c0-.88-.71-1.59-1.58-1.59h-9.04c-.87,0-1.58,.71-1.58,1.59v7.35c0,.88-.71,1.59-1.58,1.59h-.9c-.87,0-1.58-.71-1.58-1.59V18.66c0-.88,.71-1.59,1.58-1.59h17.22c.87,0,1.58,.71,1.58,1.59v27.54c0,.88-.71,1.59-1.58,1.59Zm-4.12-27.14h-9.04c-.87,0-1.58,.71-1.58,1.59v2.01c0,.88,.71,1.59,1.58,1.59h9.04c.87,0,1.58-.71,1.58-1.59v-2.01c0-.88-.71-1.59-1.58-1.59Zm0,8.25h-9.04c-.87,0-1.58,.71-1.58,1.59v1.96c0,.88,.71,1.59,1.58,1.59h9.04c.87,0,1.58-.71,1.58-1.59v-1.96c0-.88-.71-1.59-1.58-1.59Zm24.56-6.85h-10.83c-2.44,0-3.71-1.3-3.71-4V1.8c0-.88,.71-1.59,1.58-1.59h1.11c.87,0,1.58,.71,1.58,1.59v2.82c0,1.11,1.1,1.88,2.13,1.49l10.03-3.71c1.03-.38,2.13,.39,2.13,1.49v.96c0,.67-.42,1.27-1.04,1.5l-12.2,4.43c-.63,.23-1.04,.83-1.04,1.5v4.54c0,.88,.36,1.25,1.27,1.25h7.93c1.93,0,2.85-.31,2.85-2.39v-2.41c0-.88,.71-1.59,1.58-1.59h.8c.87,0,1.58,.71,1.58,1.59v3.29c0,4.1-2.08,5.5-5.74,5.5Zm0,25.12h-10.83c-2.44,0-3.71-1.25-3.71-3.95V25.26c0-.88,.71-1.59,1.58-1.59h1.11c.87,0,1.58,.71,1.58,1.59v4.04c0,1.1,1.08,1.87,2.11,1.5l10.62-3.79c1.03-.37,2.11,.4,2.11,1.5v.88c0,.68-.42,1.28-1.06,1.5l-12.73,4.5c-.63,.22-1.06,.83-1.06,1.5v5.1c0,.88,.36,1.19,1.27,1.19h7.93c1.93,0,2.85-.31,2.85-2.34v-3.65c0-.88,.71-1.59,1.58-1.59h.8c.87,0,1.58,.71,1.58,1.59v4.53c0,4.1-2.08,5.45-5.74,5.45Z"/><path class="cls-3" d="M162.14,33.68c-1.07,0-1.94,.87-1.94,1.95v6.56c0,3.11-1.02,4.2-4.07,4.2h-7.57c-1.07,0-1.94-.87-1.94-1.95v-.1c0-1.08,.87-1.95,1.94-1.95h6.3c.86,0,.97-.26,.97-.99v-5.79c0-1.08-.87-1.95-1.94-1.95h-26.38c-1.07,0-1.94,.87-1.94,1.95v8.82c0,1.08-.87,1.95-1.94,1.95h-.45c-1.07,0-1.94-.87-1.94-1.95v-8.82c0-1.08-.87-1.95-1.94-1.95h-.19c-1.07,0-1.94-.87-1.94-1.95v-.31c0-1.08,.87-1.95,1.94-1.95h.19c1.07,0,1.94-.87,1.94-1.95V11.91c0-1.08,.87-1.95,1.94-1.95h13.41c1.07,0,1.94-.87,1.94-1.95v-1.92c0-1.08-.87-1.95-1.94-1.95h-17.22c-1.07,0-1.94-.87-1.94-1.95v-.26c0-1.08,.87-1.95,1.94-1.95h42.59c1.07,0,1.94,.87,1.94,1.95v.26c0,1.08-.87,1.95-1.94,1.95h-17.22c-1.07,0-1.94,.87-1.94,1.95v1.92c0,1.08,.87,1.95,1.94,1.95h13.51c1.07,0,1.94,.87,1.94,1.95v15.62c0,1.08,.87,1.95,1.94,1.95h.09c1.07,0,1.94,.87,1.94,1.95v.31c0,1.08-.87,1.95-1.94,1.95h-.09Zm-25.53-19.93h-9.09c-1.07,0-1.94,.87-1.94,1.95v2.49c0,1.08,.87,1.95,1.94,1.95h9.09c1.07,0,1.94-.87,1.94-1.95v-2.49c0-1.08-.87-1.95-1.94-1.95Zm0,9.81h-9.09c-1.07,0-1.94,.87-1.94,1.95v2.44c0,1.08,.87,1.95,1.94,1.95h9.09c1.07,0,1.94-.87,1.94-1.95v-2.44c0-1.08-.87-1.95-1.94-1.95Zm17.28-9.81h-9.14c-1.07,0-1.94,.87-1.94,1.95v2.49c0,1.08,.87,1.95,1.94,1.95h9.14c1.07,0,1.94-.87,1.94-1.95v-2.49c0-1.08-.87-1.95-1.94-1.95Zm0,9.81h-9.14c-1.07,0-1.94,.87-1.94,1.95v2.44c0,1.08,.87,1.95,1.94,1.95h9.14c1.07,0,1.94-.87,1.94-1.95v-2.44c0-1.08-.87-1.95-1.94-1.95Z"/><path class="cls-4" d="M175.81,44.74v-.37c0-1.12,.9-2.02,2.01-2.02h17.84c1.11,0,2.01-.9,2.01-2.02v-8.62c0-1.12-.9-2.02-2.01-2.02h-13.32c-1.11,0-2.01-.9-2.01-2.02v-.32c0-1.12,.9-2.02,2.01-2.02h13.32c1.11,0,2.01-.9,2.01-2.02v-7.58c0-1.12-.9-2.02-2.01-2.02h-9.13c-.75,0-1.42,.42-1.78,1.08-1.68,3.14-3.67,6.02-5.82,8.33-1.24,1.34-3.48,.45-3.48-1.38v-.69c0-.51,.21-1,.57-1.36,3.36-3.48,6.85-9.62,8.63-16.48,.23-.88,1.03-1.49,1.94-1.49h.37c1.29,0,2.27,1.21,1.96,2.47-.21,.82-.45,1.65-.72,2.48-.42,1.29,.56,2.62,1.92,2.62h5.54c1.11,0,2.01-.9,2.01-2.02V2.02c0-1.12,.9-2.02,2.01-2.02h.45c1.11,0,2.01,.9,2.01,2.02V7.27c0,1.12,.9,2.02,2.01,2.02h15.45c1.11,0,2.01,.9,2.01,2.02v.37c0,1.12-.9,2.02-2.01,2.02h-15.45c-1.11,0-2.01,.9-2.01,2.02v7.58c0,1.12,.9,2.02,2.01,2.02h13.16c1.11,0,2.01,.9,2.01,2.02v.32c0,1.12-.9,2.02-2.01,2.02h-13.16c-1.11,0-2.01,.9-2.01,2.02v8.62c0,1.12,.9,2.02,2.01,2.02h16.77c1.11,0,2.01,.9,2.01,2.02v.37c0,1.12-.9,2.02-2.01,2.02h-43.11c-1.11,0-2.01-.9-2.01-2.02Z"/><path class="cls-2" d="M95.08,79.09h-.98l-.69-2.14h-2.79l-.69,2.14h-.92l2.5-7.32h1.06l2.51,7.32Zm-3.09-6.4l-1.13,3.5h2.29l-1.16-3.5Z"/><path class="cls-2" d="M102.77,71.77h1.12l3.98,6.13v-6.13h.9v7.32h-1.13l-3.99-6.16v6.16h-.88v-7.32Z"/><path class="cls-2" d="M115.78,74.52c.36,.4,.55,.97,.55,1.71v.46l-.05,.11h-3.5c0,.43,.16,.84,.49,1.21,.31,.31,.79,.47,1.45,.47,.43,0,.85-.07,1.24-.2l.16,.64c-.54,.19-1.09,.28-1.64,.28-.82,0-1.45-.22-1.89-.67s-.65-1.08-.65-1.9c0-.78,.19-1.42,.57-1.93,.41-.52,.98-.78,1.72-.78,.67,0,1.19,.2,1.56,.61Zm-.62,.5c-.19-.28-.47-.43-.84-.43-.47,0-.83,.14-1.08,.43-.25,.28-.4,.65-.45,1.09h2.66c0-.44-.1-.81-.29-1.09Z"/><path class="cls-2" d="M119.83,73.98l1.34,4.08v.2l.04-.2,1.34-4.08h.84l1.28,4.08,.04,.2,.03-.2,1.33-4.08h.88l-1.76,5.11h-.97l-1.29-3.95-1.29,3.95h-.96l-1.73-5.11h.88Z"/><path class="cls-2" d="M134.78,71.77h.88v7.32h-.88v-7.32Zm4.1,0h1.12l-3.11,3.49,3.31,3.83h-1.14l-3.27-3.75,3.1-3.57Z"/><path class="cls-2" d="M146.71,74.52c.36,.4,.55,.97,.55,1.71v.46l-.05,.11h-3.5c0,.43,.16,.84,.49,1.21,.31,.31,.79,.47,1.45,.47,.43,0,.85-.07,1.24-.2l.16,.64c-.54,.19-1.09,.28-1.64,.28-.82,0-1.45-.22-1.89-.67-.43-.44-.65-1.08-.65-1.9,0-.78,.19-1.42,.57-1.93,.41-.52,.98-.78,1.72-.78,.67,0,1.19,.2,1.56,.61Zm-.62,.5c-.19-.28-.47-.43-.84-.43-.47,0-.83,.14-1.08,.43-.25,.28-.4,.65-.45,1.09h2.66c0-.44-.1-.81-.29-1.09Z"/><path class="cls-2" d="M154.76,73.98l-2.91,7.85h-.89l.98-2.47-2.05-5.37h.9l1.57,4.23,1.57-4.23h.82Z"/><path class="cls-2" d="M161.85,71.77h5.76v.75h-2.46v6.57h-.88v-6.57h-2.42v-.75Z"/><path class="cls-2" d="M170.74,78.49c-.43-.48-.65-1.12-.65-1.93s.22-1.46,.66-1.94c.44-.47,1.05-.71,1.83-.71s1.38,.23,1.81,.7c.43,.47,.64,1.11,.64,1.93s-.22,1.44-.66,1.93c-.44,.49-1.05,.73-1.82,.73s-1.37-.24-1.8-.72Zm.67-3.34c-.28,.37-.42,.84-.42,1.41s.14,1.03,.42,1.4,.67,.54,1.18,.54,.88-.18,1.16-.55c.27-.37,.41-.83,.41-1.39s-.14-1.04-.42-1.41c-.28-.37-.66-.56-1.15-.56s-.9,.19-1.18,.56Z"/><path class="cls-2" d="M188.03,71.77h.88v7.32h-.88v-3.29h-4.07v3.29h-.88v-7.32h.88v3.23h4.07v-3.23Z"/><path class="cls-2" d="M196.02,74.52c.36,.4,.55,.97,.55,1.71v.46l-.05,.11h-3.5c0,.43,.16,.84,.49,1.21,.31,.31,.79,.47,1.45,.47,.43,0,.85-.07,1.24-.2l.16,.64c-.54,.19-1.09,.28-1.64,.28-.82,0-1.45-.22-1.89-.67-.43-.44-.65-1.08-.65-1.9,0-.78,.19-1.42,.57-1.93,.41-.52,.98-.78,1.72-.78,.67,0,1.19,.2,1.56,.61Zm-.62,.5c-.19-.28-.47-.43-.84-.43-.47,0-.83,.14-1.08,.43-.25,.28-.4,.65-.45,1.09h2.66c0-.44-.1-.81-.29-1.09Z"/><path class="cls-2" d="M200.63,74.72c-.26,.04-.49,.09-.7,.15l-.17-.64c.59-.2,1.15-.31,1.66-.31,.58,0,1.02,.09,1.32,.27,.27,.2,.45,.4,.55,.62,.1,.22,.15,.55,.15,.97v3.3h-.65l-.19-.48c-.51,.41-1.02,.61-1.56,.61-.46,0-.85-.13-1.16-.4-.32-.27-.47-.6-.47-1.01s.12-.73,.37-.99c.24-.26,.54-.44,.9-.53,.45-.12,1.09-.18,1.9-.2v-.04c0-.36-.04-.63-.11-.8-.14-.4-.53-.6-1.17-.6-.19,0-.41,.02-.67,.06Zm1.31,3.66c.22-.1,.43-.25,.64-.43v-1.22c-.61,0-1.06,.04-1.36,.11-.33,.07-.57,.18-.73,.31-.16,.14-.24,.33-.24,.58s.09,.46,.27,.6c.18,.14,.4,.21,.65,.21,.29,0,.55-.05,.77-.15Z"/><path class="cls-2" d="M208.71,78.33l.16,.62s-.13,.05-.32,.13c-.19,.08-.43,.12-.72,.12-.33,0-.59-.11-.78-.34s-.3-.52-.31-.88v-5.99h.84v5.68c0,.24,.04,.42,.12,.54,.08,.12,.27,.19,.56,.19,.13,0,.28-.03,.45-.08Z"/><path class="cls-2" d="M212.19,78.77c-.22-.28-.33-.7-.33-1.27v-2.81h-.86v-.72h.86v-1.25l.86-.07v1.32h1.68v.72h-1.68v2.75c0,.35,.06,.61,.17,.77s.33,.24,.65,.24c.3,0,.57-.03,.81-.08l.15,.59c-.4,.15-.8,.23-1.21,.23-.51,0-.88-.14-1.1-.42Z"/><path class="cls-2" d="M220.51,74.87c-.17-.2-.46-.29-.88-.29-.39,0-.85,.12-1.37,.37v4.14h-.86v-7.08h.86v2.3c.59-.31,1.16-.46,1.7-.46s.94,.16,1.24,.47,.44,.75,.44,1.3v3.47h-.88v-3.27c0-.43-.08-.75-.25-.94Z"/><path class="cls-2" d="M9.45,67.15l8.31,15.89h-1.92l-2.8-5.23H5.36l-2.78,5.23H.59l8.42-15.89h.44Zm-.23,3.38l-3.05,5.75h6.09l-3.04-5.75Z"/><path class="cls-2" d="M20.53,83.04v-15.89h.39l11.86,12.18v-12.18h1.76v15.89h-.4l-11.76-12.03v12.03h-1.84Z"/><path class="cls-2" d="M38.88,67.15h1.82v5.96l7.12-5.96h2.39l-8.56,7.13,9.23,8.76h-2.37l-7.81-7.4v7.4h-1.82v-15.89Z"/><path class="cls-2" d="M53.51,67.15h1.78v6.67h9.07v-6.67h1.78v15.89h-1.78v-7.67h-9.07v7.67h-1.78v-15.89Z"/><rect class="cls-2" x="78.3" y="64" width=".88" height="24.52"/><g><path class="cls-2" d="M12.49,104.62c0-.93-.05-1.48-.14-1.97h1.77c-.12,.46-.14,.83-.14,1.97v.19h5.74c1.17,0,1.84-.05,2.59-.14v1.53c-.75-.09-1.28-.12-2.5-.12H6.19v4.12c0,4.59-.37,7.41-1.31,9.71-.56,1.39-1.1,2.29-2.29,3.8-.37-.49-.65-.72-1.24-1.04,2.08-2.34,2.92-4.33,3.27-7.83-.79,.46-1.05,.63-2.87,1.6-.07,.02-.07,.05-.33,.21l-.61-1.48c.84-.19,2.36-.88,3.9-1.76,.02-.86,.05-1.37,.05-2.22,0-5.1,0-5.47-.12-6.49,.84,.09,1.63,.12,2.66,.12h5.18v-.19Zm-10.17,2.25c.77,1.48,1.07,2.27,1.73,4.24l-1.21,.63c-.49-1.78-.89-2.83-1.66-4.33l1.14-.53Zm10.69,4.59c-.75-.53-1.35-.9-2.43-1.48l1.07-.72c1.17,.69,1.98,1.27,2.89,2.02,1.28-.7,2.4-1.48,3.45-2.39H9.9c-1.07,0-1.66,.02-2.26,.12v-1.44c.51,.09,1.07,.12,2.31,.12h7.37c1.05,0,1.59-.02,2.22-.09l.77,.93q-.07,.02-.14,.09s-.05,.05-.12,.09q-.12,.09-.4,.37c-.93,.81-2.29,1.74-3.45,2.39h2.82c1.21,0,1.75-.02,2.4-.12-.07,.74-.09,1.27-.09,2.45v8.2c0,1.2-.51,1.51-2.47,1.51-.51,0-1.14-.02-2.01-.05-.07-.56-.12-.77-.37-1.34,.82,.12,1.63,.19,2.45,.19,.86,0,1.05-.09,1.05-.58v-2.27h-5.06v1.6c0,1.23,.02,1.74,.09,2.27h-1.52c.07-.58,.09-1,.09-2.27v-1.6h-4.48v1.99c0,1.18,.02,1.81,.12,2.43h-1.59c.09-.56,.12-1.32,.12-2.43v-7.9c0-.9-.02-1.44-.07-2.2,.65,.09,1.12,.12,2.15,.12h3.17Zm-3.9,1.18v2.2h4.48v-2.2h-4.48Zm4.48,5.65v-2.27h-4.48v2.27h4.48Zm6.39-5.65h-5.06v2.2h5.06v-2.2Zm0,3.38h-5.06v2.27h5.06v-2.27Z"/><path class="cls-2" d="M52.46,104.69c0-.9-.05-1.34-.14-1.85h1.77c-.12,.56-.14,.9-.14,1.88v.37h5.83c1.14,0,1.82-.05,2.59-.14v1.6c-.72-.09-1.28-.12-2.57-.12h-13.41v4.24c0,6.58-.98,10.1-3.62,13.07-.37-.44-.75-.77-1.26-1.02,2.01-2.18,2.89-4.31,3.22-7.83-.44,.28-1.28,.76-2.52,1.44-.3,.16-.37,.18-.56,.32l-.65-1.46c.82-.19,2.38-.88,3.85-1.72,.07-1.18,.09-1.81,.09-2.59,0-4.17-.02-5.05-.16-5.91,.82,.09,1.49,.12,2.66,.12h5.02v-.39Zm-9.99,2.2c.77,1.5,1.14,2.41,1.73,4.29l-1.24,.63c-.51-1.85-.86-2.83-1.63-4.33l1.14-.58Zm11.52,3.57h-4.06c-1,0-1.63,.02-2.31,.09v-1.53c.7,.09,1.24,.12,2.31,.12h9.85c.89,0,1.63-.05,2.29-.14v1.58c-.65-.09-1.33-.12-2.29-.12h-4.29v4.24h3.83c.98,0,1.47-.02,2.03-.12v1.57c-.61-.09-1.1-.12-2.01-.12h-3.85v5.56h4.67c1.03,0,1.77-.05,2.45-.14v1.62c-.7-.09-1.45-.14-2.47-.14h-12.37c-1.14,0-1.87,.05-2.59,.14v-1.6c.58,.09,1.17,.12,2.33,.12h1.59v-6.09c0-.81-.05-1.55-.14-2.27h1.77c-.09,.72-.14,1.44-.14,2.27v6.09h3.41v-11.14Z"/><path class="cls-2" d="M83.77,114.47c0-1.34,.02-2.41,.07-3.52-.72,1.53-1.21,2.34-2.01,3.43-.07-.12-.14-.21-.16-.28q-.21-.39-.47-.67t-.26-.35c1.56-2.02,2.57-3.89,3.62-6.74,.49-1.34,.89-2.78,.98-3.57l1.49,.42c-.21,.53-.23,.6-.37,1.11-.37,1.32-.91,2.76-1.52,4.19v12.46c0,1.37,.02,2.11,.09,2.87h-1.61c.09-.79,.14-1.6,.14-2.85v-6.51Zm3.73-.81c.23,1.37,.54,2.18,1.38,3.71,.49-1.51,.72-2.64,1.07-5.12h-2.26c-.7,0-1.05,0-1.68,.05,1.61-2.22,2.73-4.15,3.64-6.35h-1.47c-.49,0-.93,.05-1.31,.12v-1.41c.35,.05,.82,.07,1.38,.07h1.19c.65,0,.91-.02,1.24-.07l.68,.72c-.09,.16-.14,.25-.3,.63-.56,1.41-1.7,3.47-2.78,5.1h.98c1.24,0,1.7-.02,2.15-.09q-.07,.58-.16,1.2c-.3,2.41-.82,4.61-1.49,6.46,1.91,2.27,4.43,3.15,9.1,3.15,1.26,0,2.45-.07,4.39-.25-.3,.65-.4,.97-.44,1.51-1.54,.07-2.19,.09-3.1,.09-2.99,0-5.04-.25-6.79-.86-1.56-.53-2.59-1.18-3.69-2.36-.72,1.46-1.33,2.34-2.64,3.85q-.3-.49-1-1.11c1.24-1.16,2.1-2.39,2.75-3.87-.84-1.27-1.05-1.71-2.17-4.59l1.35-.56Zm8.05-7.46h-1.47c-.77,0-1.21,.02-1.77,.09v-1.39c.51,.09,.93,.12,1.77,.12h1.47v-.21c0-.72-.05-1.16-.12-1.69h1.52c-.07,.53-.09,.95-.09,1.69v.21h2.73c.86,0,1.38-.02,1.75-.07-.05,.49-.05,.63-.05,1.55v1.67h.23c.7,0,1.07-.02,1.56-.12v1.41c-.65-.09-1.07-.12-1.56-.12h-.23v1.88c0,.65,0,.97,.05,1.41-.49-.02-1.07-.05-1.77-.05h-2.71v1.85h2.68c1.03,0,1.56-.02,2.17-.12v1.39c-.72-.07-1.4-.12-2.19-.12h-2.66v1.97h3.5c.96,0,1.66-.05,2.29-.12v1.41c-.68-.07-1.28-.09-2.29-.09h-3.5v.44c0,.65,.02,1.09,.12,1.71h-1.54c.07-.53,.12-.95,.12-1.69v-.46h-2.68c-1,0-1.56,.02-2.15,.12v-1.44c.68,.09,1.31,.12,2.17,.12h2.66v-1.97h-1.77c-.91,0-1.54,.02-2.03,.12v-1.39c.49,.09,1.05,.12,2.03,.12h1.77v-1.85h-1.68c-.7,0-1.17,.02-1.7,.09v-1.32c.54,.07,.98,.09,1.73,.09h1.66v-2.11h-2.19c-.98,0-1.52,.02-2.05,.12v-1.41c.54,.09,1.12,.12,2.26,.12h1.98v-1.97Zm4.41,1.97v-1.97h-3.1v1.97h3.1Zm-3.1,3.29h3.1v-2.11h-3.1v2.11Z"/><path class="cls-2" d="M132.75,109.12h-4.06c-.75,0-1.28,.02-1.84,.12v-1.41c.51,.09,.96,.12,1.84,.12h4.06c-.02-.72-.05-.95-.12-1.34h1.56c-.07,.35-.09,.67-.09,1.34h4.39c.91,0,1.35-.02,2.01-.09-.07,.44-.07,.93-.07,1.6v1.39h.7c.93,0,1.38-.02,1.82-.12v1.44c-.58-.09-1.14-.12-1.84-.12h-.68v1.46c0,1,0,1.14,.05,1.62q-1.14-.05-1.7-.05h-4.13c.65,1.23,1.26,2.09,2.26,3.15,1.75-1.16,2.59-1.9,3.55-3.08l1.24,.88c-1.52,1.41-2.43,2.13-3.87,3.08,1.52,1.34,2.92,2.2,5.13,3.13-.35,.35-.63,.65-1.05,1.27-2.43-1.27-3.55-2.02-4.99-3.43-1.12-1.07-1.98-2.27-2.94-4.08,.07,.65,.12,1.9,.12,2.34v3.64c0,1.39-.47,1.74-2.29,1.74-.61,0-1.28-.02-2.15-.09-.05-.63-.12-1-.33-1.58,.91,.19,1.68,.28,2.47,.28s.96-.07,.96-.56v-2.34c-3.08,1.51-3.41,1.65-6.07,2.64-.37,.14-.61,.26-.89,.37l-.72-1.46c.56-.09,.79-.16,1.91-.51,2.1-.67,3.1-1.07,5.76-2.36v-3.04h-4.25c-.82,0-1.35,.02-1.87,.12v-1.41c.51,.09,1,.12,1.82,.12h4.29v-1.85h-7.56c-.23,5.7-.84,8.64-2.38,11.75-.44-.51-.65-.7-1.24-1.09,.82-1.6,1.17-2.59,1.47-4.12,.51-2.52,.79-6.53,.79-11.26,0-1.37-.02-1.95-.09-2.62,.68,.09,1.35,.12,2.61,.12h5.93v-.58c0-.7-.05-1.04-.14-1.51h1.73c-.09,.42-.12,.79-.12,1.53v.56h6.53c1.17,0,1.87-.05,2.43-.14v1.51c-.75-.09-1.35-.12-2.22-.12h-15.21c0,2.41-.02,3.36-.05,4.77h7.51v-1.71Zm-4.92,6.42c1.26,.74,2.01,1.32,3.2,2.41l-.96,.9c-1.24-1.2-1.91-1.71-3.24-2.48l1-.84Zm11.25-6.42h-4.97v1.71h4.97v-1.71Zm-4.97,2.92v1.85h4.97v-1.85h-4.97Z"/><path class="cls-2" d="M173.51,114.03h6.09c1.05,0,1.52-.02,2.15-.12v1.39c-.63-.09-1.12-.12-2.12-.12h-6.42v1.69h7.02c1.33,0,2.01-.02,2.61-.14v1.53c-.82-.09-1.54-.14-2.61-.14h-5.88c2.17,1.88,5.2,3.27,8.77,4.01-.42,.53-.63,.86-.89,1.44-4.11-1.2-6.77-2.64-9.1-4.98,.07,.83,.07,1.11,.07,1.76v1.81c0,1,.02,1.27,.14,1.74h-1.73c.12-.51,.14-.9,.14-1.71v-1.83c0-.16,0-.37,.02-.63,0-.23,0-.39,.02-.46q0-.39,.02-.67c-1.4,1.46-2.71,2.39-4.55,3.27-1.33,.65-2.78,1.16-4.46,1.6-.28-.6-.51-.93-.93-1.39,2.31-.42,3.9-.95,5.67-1.88,1.24-.65,2.15-1.27,2.99-2.06h-5.76c-1.05,0-1.77,.05-2.57,.14v-1.53c.58,.09,1.26,.14,2.57,.14h6.98v-1.69h-5.13c-.86,0-1.12,0-1.61,.05,.05-.35,.07-.93,.07-1.55v-3.89c0-.83,.02-1.55,.09-2.27-.84,.95-1.42,1.51-2.59,2.39-.28-.49-.51-.74-.93-1.14,1.91-1.32,3.31-2.71,4.53-4.59,.37-.58,.68-1.16,.84-1.67l1.61,.39q-1.12,1.69-1.54,2.22h5.04c.75-1.02,1.1-1.67,1.4-2.57l1.52,.35c-.58,1.07-1,1.69-1.42,2.22h5.9c1.03,0,1.52-.02,2.15-.12v1.44c-.61-.09-1.07-.12-2.03-.12h-6.14v1.74h4.97c.93,0,1.42-.02,2.1-.14v1.39c-.63-.09-1.05-.12-2.1-.12h-4.97v1.74h4.97c.96,0,1.4-.02,2.1-.14v1.39c-.56-.09-1.07-.12-2.1-.12h-4.97v1.95Zm-1.38-7.69h-5.62v1.74h5.62v-1.74Zm0,2.87h-5.62v1.74h5.62v-1.74Zm-5.62,2.87v1.95h5.62v-1.95h-5.62Z"/><path class="cls-2" d="M202.79,123.97c.12-.7,.14-1.34,.14-2.78v-14.64c0-1.16-.05-1.95-.14-2.85,.98,.09,1.75,.12,2.96,.12h13.95c1.21,0,1.91-.02,2.78-.12-.09,.84-.14,1.67-.14,2.85v14.69c0,1.39,.02,2.06,.14,2.73h-1.56v-.95h-16.56v.95h-1.56Zm1.56-2.16h16.56v-16.8h-16.56v16.8Zm11.2-6.19c-2.75,.14-5.06,.18-8.66,.23-.56,0-.72,0-1.07,.05l-.26-1.27c.63,.09,1.1,.12,2.82,.12q.77,0,3.45-.02v-1.09h-3.45c-.65,0-1.07,.02-1.56,.07,.05-.46,.05-.7,.05-1.34v-2.5c0-.65,0-.86-.05-1.32,.44,.05,.89,.07,1.56,.07h3.45v-1h-4.27c-.96,0-1.56,.02-2.1,.09v-1.32c.61,.09,1.24,.12,2.1,.12h4.27c-.02-.28-.07-.7-.12-1.02h1.42c-.05,.28-.09,.7-.12,1.02h4.78c.84,0,1.49-.02,2.1-.12v1.32c-.56-.07-1.17-.09-2.1-.09h-4.78v1h3.87c.72,0,1.17-.02,1.61-.07-.05,.51-.05,.63-.05,1.32v2.5c0,.72,0,.79,.05,1.34-.47-.05-.65-.05-1.38-.07,.98,.83,1.47,1.27,2.52,2.36l-.98,.72c-.44-.56-.61-.72-1.05-1.2l-.79,.05v1.34h1.19c.84,0,1.45-.02,2.05-.12v1.32c-.51-.09-1.1-.12-2.05-.12h-1.19v1.65c0,1.25-.44,1.55-2.33,1.55-.26,0-.89-.02-1.42-.05-.07-.51-.16-.81-.37-1.27,.72,.12,1.26,.16,2.01,.16,.65,0,.84-.14,.84-.6v-1.44h-8.28c-.96,0-1.52,.02-2.03,.12v-1.32c.56,.07,1.19,.12,2.05,.12h8.26v-1.27Zm-7.47-6.05v1.07h3.76v-1.07h-3.76Zm0,1.97v1.14h3.76v-1.14h-3.76Zm2.54,9.57c-.72-.9-1.28-1.46-2.36-2.29l.91-.69c.98,.74,1.66,1.34,2.4,2.15l-.96,.84Zm2.4-10.47h4.22v-1.07h-4.22v1.07Zm0,2.04h4.22v-1.14h-4.22v1.14Zm0,2.02c2.31-.02,2.71-.02,3.69-.07-.26-.23-.35-.3-.68-.56l.93-.44h-3.94v1.07Z"/></g></g></g></svg>