<?xml version="1.0" encoding="UTF-8"?>
<svg id="Layer_1" data-name="Layer 1" xmlns="http://www.w3.org/2000/svg" viewBox="0 0 400 400">
  <defs>
    <style>
      .cls-1 {
        fill: #231f20;
      }
    </style>
  </defs>
  <path class="cls-1" d="m47.99,93.77c-3.04,0-5.5-2.46-5.5-5.5v-38.08c0-3.04,2.46-5.5,5.5-5.5h38.08c3.04,0,5.5,2.46,5.5,5.5s-2.46,5.5-5.5,5.5h-32.58v32.58c0,3.04-2.46,5.5-5.5,5.5Z"/>
  <path class="cls-1" d="m352.01,362.94h-38.08c-3.04,0-5.5-2.46-5.5-5.5s2.46-5.5,5.5-5.5h32.58v-32.58c0-3.04,2.46-5.5,5.5-5.5s5.5,2.46,5.5,5.5v38.08c0,3.04-2.46,5.5-5.5,5.5Z"/>
  <path class="cls-1" d="m353.63,95.39c-3.04,0-5.5-2.46-5.5-5.5v-32.58h-32.58c-3.04,0-5.5-2.46-5.5-5.5s2.46-5.5,5.5-5.5h38.08c3.04,0,5.5,2.46,5.5,5.5v38.08c0,3.04-2.46,5.5-5.5,5.5Z"/>
  <path class="cls-1" d="m84.46,361.33h-38.08c-3.04,0-5.5-2.46-5.5-5.5v-38.08c0-3.04,2.46-5.5,5.5-5.5s5.5,2.46,5.5,5.5v32.58h32.58c3.04,0,5.5,2.46,5.5,5.5s-2.46,5.5-5.5,5.5Z"/>
  <path class="cls-1" d="m247.93,263.22h-29.17c-7.18,0-13-5.82-13-13s5.82-13,13-13h29.17c16.67,0,30.23-13.56,30.23-30.23s-13.56-30.23-30.23-30.23h-29.17c-7.18,0-13-5.82-13-13s5.82-13,13-13h29.17c31.01,0,56.23,25.22,56.23,56.23s-25.22,56.23-56.23,56.23Z"/>
  <path class="cls-1" d="m324.86,219.99h-60.14c-7.18,0-13-5.82-13-13s5.82-13,13-13h60.14c7.18,0,13,5.82,13,13s-5.82,13-13,13Z"/>
  <path class="cls-1" d="m192.62,263.22h-29.17c-31.01,0-56.23-25.22-56.23-56.23s25.22-56.23,56.23-56.23h29.17c7.18,0,13,5.82,13,13s-5.82,13-13,13h-29.17c-16.67,0-30.23,13.56-30.23,30.23s13.56,30.23,30.23,30.23h29.17c7.18,0,13,5.82,13,13s-5.82,13-13,13Z"/>
  <path class="cls-1" d="m146.66,219.99h-60.14c-7.18,0-13-5.82-13-13s5.82-13,13-13h60.14c7.18,0,13,5.82,13,13s-5.82,13-13,13Z"/>
</svg>