<?xml version="1.0" encoding="UTF-8"?>
<svg id="Layer_1" data-name="Layer 1" xmlns="http://www.w3.org/2000/svg" viewBox="0 0 400 400">
  <defs>
    <style>
      .cls-1 {
        fill: #231f20;
      }
    </style>
  </defs>
  <path class="cls-1" d="m47.99,93.77c-3.04,0-5.5-2.46-5.5-5.5v-38.08c0-3.04,2.46-5.5,5.5-5.5h38.08c3.04,0,5.5,2.46,5.5,5.5s-2.46,5.5-5.5,5.5h-32.58v32.58c0,3.04-2.46,5.5-5.5,5.5Z"/>
  <path class="cls-1" d="m352.01,362.94h-38.08c-3.04,0-5.5-2.46-5.5-5.5s2.46-5.5,5.5-5.5h32.58v-32.58c0-3.04,2.46-5.5,5.5-5.5s5.5,2.46,5.5,5.5v38.08c0,3.04-2.46,5.5-5.5,5.5Z"/>
  <path class="cls-1" d="m353.63,95.39c-3.04,0-5.5-2.46-5.5-5.5v-32.58h-32.58c-3.04,0-5.5-2.46-5.5-5.5s2.46-5.5,5.5-5.5h38.08c3.04,0,5.5,2.46,5.5,5.5v38.08c0,3.04-2.46,5.5-5.5,5.5Z"/>
  <path class="cls-1" d="m84.46,361.33h-38.08c-3.04,0-5.5-2.46-5.5-5.5v-38.08c0-3.04,2.46-5.5,5.5-5.5s5.5,2.46,5.5,5.5v32.58h32.58c3.04,0,5.5,2.46,5.5,5.5s-2.46,5.5-5.5,5.5Z"/>
  <path class="cls-1" d="m227.7,249.22c-5.24,0-10.18-3.19-12.15-8.38-2.55-6.71.82-14.22,7.53-16.77l39-14.83c5.88-2.23,10.53-6.62,13.11-12.36,2.58-5.74,2.76-12.13.53-18.01-2.23-5.88-6.62-10.53-12.36-13.11-5.74-2.58-12.13-2.76-18.01-.53l-39,14.83c-6.71,2.55-14.22-.82-16.77-7.53-2.55-6.71.82-14.22,7.53-16.77l39-14.83c12.37-4.7,25.83-4.31,37.9,1.11,12.07,5.42,21.31,15.22,26.01,27.59,4.7,12.37,4.31,25.83-1.11,37.9s-15.22,21.31-27.59,26.01l-39,14.83c-1.52.58-3.08.85-4.62.85Z"/>
  <path class="cls-1" d="m270.77,191.57c-5.19,0-10.09-3.13-12.1-8.25-2.62-6.68.67-14.23,7.35-16.85l46.4-18.21c6.69-2.62,14.23.67,16.85,7.35,2.62,6.68-.67,14.23-7.35,16.85l-46.4,18.21c-1.56.61-3.17.9-4.75.9Z"/>
  <path class="cls-1" d="m141.2,279.36c-19.98,0-38.85-12.18-46.36-31.94-9.71-25.53,3.17-54.2,28.7-63.91l39-14.83c6.71-2.55,14.22.82,16.77,7.53,2.55,6.71-.82,14.22-7.53,16.77l-39,14.83c-12.13,4.61-18.25,18.24-13.64,30.37,4.61,12.13,18.23,18.25,30.37,13.64l39-14.83c6.71-2.55,14.22.82,16.77,7.53,2.55,6.71-.82,14.22-7.53,16.77l-39,14.83c-5.77,2.2-11.71,3.24-17.55,3.24Z"/>
  <path class="cls-1" d="m87.49,263.22c-5.24,0-10.18-3.19-12.15-8.38-2.55-6.71.82-14.22,7.53-16.77l39-14.83c6.71-2.55,14.22.82,16.77,7.53,2.55,6.71-.82,14.22-7.53,16.77l-39,14.83c-1.52.58-3.08.85-4.62.85Z"/>
  <path class="cls-1" d="m211.23,304.03c-2.04,0-3.78-1.55-3.98-3.62l-2.11-21.79c-.21-2.2,1.4-4.15,3.6-4.37,2.19-.21,4.15,1.4,4.37,3.6l2.11,21.79c.21,2.2-1.4,4.15-3.6,4.37-.13.01-.26.02-.39.02Z"/>
  <path class="cls-1" d="m251.01,304.17c-1.16,0-2.31-.5-3.1-1.47l-18.06-22.09c-1.4-1.71-1.15-4.23.56-5.63,1.71-1.4,4.23-1.15,5.63.56l18.06,22.09c1.4,1.71,1.15,4.23-.56,5.63-.74.61-1.64.9-2.53.9Z"/>
  <path class="cls-1" d="m166.55,154.69c-.45,0-.91-.08-1.35-.24l-28.79-10.34c-2.08-.75-3.16-3.04-2.41-5.12.75-2.08,3.04-3.16,5.12-2.41l28.79,10.34c2.08.75,3.16,3.04,2.41,5.12-.59,1.63-2.12,2.65-3.76,2.65Z"/>
  <path class="cls-1" d="m183.84,142.65c-1.79,0-3.42-1.21-3.88-3.03l-5.46-21.73c-.54-2.14.76-4.32,2.91-4.85,2.15-.54,4.32.76,4.85,2.91l5.46,21.73c.54,2.14-.76,4.32-2.91,4.85-.33.08-.66.12-.98.12Z"/>
  <path class="cls-1" d="m258.5,273.33c-.49,0-.99-.09-1.47-.28l-14.99-5.93c-2.05-.81-3.06-3.14-2.25-5.19s3.14-3.06,5.19-2.25l14.99,5.93c2.05.81,3.06,3.14,2.25,5.19-.62,1.57-2.13,2.53-3.72,2.53Z"/>
</svg>