<?xml version="1.0" encoding="UTF-8"?>
<svg id="Layer_1" data-name="Layer 1" xmlns="http://www.w3.org/2000/svg" viewBox="0 0 400 400">
  <defs>
    <style>
      .cls-1 {
        fill: #231f20;
      }
    </style>
  </defs>
  <path class="cls-1" d="m47.99,93.77c-3.04,0-5.5-2.46-5.5-5.5v-38.08c0-3.04,2.46-5.5,5.5-5.5h38.08c3.04,0,5.5,2.46,5.5,5.5s-2.46,5.5-5.5,5.5h-32.58v32.58c0,3.04-2.46,5.5-5.5,5.5Z"/>
  <path class="cls-1" d="m352.01,362.94h-38.08c-3.04,0-5.5-2.46-5.5-5.5s2.46-5.5,5.5-5.5h32.58v-32.58c0-3.04,2.46-5.5,5.5-5.5s5.5,2.46,5.5,5.5v38.08c0,3.04-2.46,5.5-5.5,5.5Z"/>
  <path class="cls-1" d="m353.63,95.39c-3.04,0-5.5-2.46-5.5-5.5v-32.58h-32.58c-3.04,0-5.5-2.46-5.5-5.5s2.46-5.5,5.5-5.5h38.08c3.04,0,5.5,2.46,5.5,5.5v38.08c0,3.04-2.46,5.5-5.5,5.5Z"/>
  <path class="cls-1" d="m84.46,361.33h-38.08c-3.04,0-5.5-2.46-5.5-5.5v-38.08c0-3.04,2.46-5.5,5.5-5.5s5.5,2.46,5.5,5.5v32.58h32.58c3.04,0,5.5,2.46,5.5,5.5s-2.46,5.5-5.5,5.5Z"/>
  <path class="cls-1" d="m282.51,131.63h0c-15.36,0-27.81,12.45-27.81,27.81v11.7l25.69,25.69c9.91,9.91,9.91,25.99,0,35.9h0s-25.69,25.69-25.69,25.69v5.19c0,15.36,12.45,27.81,27.81,27.81h0c15.36,0,27.81-12.45,27.81-27.81v-104.18c0-15.36-12.45-27.81-27.81-27.81Z"/>
  <rect class="cls-1" x="126.41" y="115.11" width="50.78" height="187.52" rx="25.39" ry="25.39" transform="translate(360.67 57.07) rotate(90)"/>
  <rect class="cls-1" x="179.35" y="100.78" width="50.78" height="154.6" rx="25.39" ry="25.39" transform="translate(475.43 159.23) rotate(135)"/>
  <rect class="cls-1" x="181.51" y="175.09" width="50.78" height="148.48" rx="25.39" ry="25.39" transform="translate(236.9 -73.27) rotate(45)"/>
</svg>