<?xml version="1.0" encoding="utf-8"?>
<!-- Generator: Adobe Illustrator 27.2.0, SVG Export Plug-In . SVG Version: 6.00 Build 0)  -->
<svg version="1.1" id="Layer_1" xmlns="http://www.w3.org/2000/svg" xmlns:xlink="http://www.w3.org/1999/xlink" x="0px" y="0px"
	 viewBox="0 0 400 400" style="enable-background:new 0 0 400 400;" xml:space="preserve">
<style type="text/css">
	.st0{fill:#231F20;}
</style>
<path class="st0" d="M133.3,234.3c-14,0-25.4-11.4-25.4-25.4s11.4-25.4,25.4-25.4h6.8v-8.3c0-15.4-12.4-27.8-27.8-27.8l0,0
	c-15.4,0-27.8,12.4-27.8,27.8v70.2c0,15.4,12.4,27.8,27.8,27.8l0,0c15.4,0,27.8-12.5,27.8-27.8v-11.1H133.3L133.3,234.3z"/>
<path class="st0" d="M48,93.8c-3,0-5.5-2.5-5.5-5.5V50.2c0-3,2.5-5.5,5.5-5.5h38.1c3,0,5.5,2.5,5.5,5.5s-2.5,5.5-5.5,5.5H53.5v32.6
	C53.5,91.3,51,93.8,48,93.8z"/>
<path class="st0" d="M352,362.9h-38.1c-3,0-5.5-2.5-5.5-5.5s2.5-5.5,5.5-5.5h32.6v-32.6c0-3,2.5-5.5,5.5-5.5s5.5,2.5,5.5,5.5v38.1
	C357.5,360.5,355.1,362.9,352,362.9z"/>
<path class="st0" d="M353.6,95.4c-3,0-5.5-2.5-5.5-5.5V57.3h-32.6c-3,0-5.5-2.5-5.5-5.5s2.5-5.5,5.5-5.5h38.1c3,0,5.5,2.5,5.5,5.5
	v38.1C359.1,92.9,356.7,95.4,353.6,95.4z"/>
<path class="st0" d="M84.5,361.3H46.4c-3,0-5.5-2.5-5.5-5.5v-38.1c0-3,2.5-5.5,5.5-5.5s5.5,2.5,5.5,5.5v32.6h32.6
	c3,0,5.5,2.5,5.5,5.5S87.5,361.3,84.5,361.3L84.5,361.3z"/>
<path class="st0" d="M316.7,232.7L316.7,232.7c-9.9,9.9-26,9.9-35.9,0l-73.4-73.4c-9.9-9.9-9.9-26,0-35.9l0,0c9.9-9.9,26-9.9,35.9,0
	l73.4,73.4C326.6,206.8,326.6,222.8,316.7,232.7z"/>
<path class="st0" d="M316.7,196.8L316.7,196.8c9.9,9.9,9.9,26,0,35.9l-69.1,69.1c-9.9,9.9-26,9.9-35.9,0l0,0c-9.9-9.9-9.9-26,0-35.9
	l69.1-69.1C290.7,186.9,306.8,186.9,316.7,196.8z"/>
<path class="st0" d="M314.7,209.4L314.7,209.4c0,14-11.4,25.4-25.4,25.4H152.6c-14,0-25.4-11.4-25.4-25.4l0,0
	c0-14,11.4-25.4,25.4-25.4h136.7C303.3,184,314.7,195.4,314.7,209.4z"/>
</svg>
