<?xml version="1.0" encoding="UTF-8"?>
<svg id="Layer_1" data-name="Layer 1" xmlns="http://www.w3.org/2000/svg" viewBox="0 0 400 400">
  <defs>
    <style>
      .cls-1 {
        fill: #231f20;
      }
    </style>
  </defs>
  <path class="cls-1" d="m151.11,269.88h0c0-8.59,6.05-15.77,14.13-17.51v-51.63c0-22.31-18.08-40.39-40.39-40.39h0c-22.31,0-40.39,18.08-40.39,40.39v101.96c0,22.31,18.08,40.39,40.39,40.39h0c22.31,0,40.39-18.08,40.39-40.39v-15.32c-8.07-1.74-14.13-8.91-14.13-17.51Z"/>
  <path class="cls-1" d="m47.99,93.77c-3.04,0-5.5-2.46-5.5-5.5v-38.08c0-3.04,2.46-5.5,5.5-5.5h38.08c3.04,0,5.5,2.46,5.5,5.5s-2.46,5.5-5.5,5.5h-32.58v32.58c0,3.04-2.46,5.5-5.5,5.5Z"/>
  <path class="cls-1" d="m352.01,362.94h-38.08c-3.04,0-5.5-2.46-5.5-5.5s2.46-5.5,5.5-5.5h32.58v-32.58c0-3.04,2.46-5.5,5.5-5.5s5.5,2.46,5.5,5.5v38.08c0,3.04-2.46,5.5-5.5,5.5Z"/>
  <path class="cls-1" d="m353.63,95.39c-3.04,0-5.5-2.46-5.5-5.5v-32.58h-32.58c-3.04,0-5.5-2.46-5.5-5.5s2.46-5.5,5.5-5.5h38.08c3.04,0,5.5,2.46,5.5,5.5v38.08c0,3.04-2.46,5.5-5.5,5.5Z"/>
  <path class="cls-1" d="m84.46,361.33h-38.08c-3.04,0-5.5-2.46-5.5-5.5v-38.08c0-3.04,2.46-5.5,5.5-5.5s5.5,2.46,5.5,5.5v32.58h32.58c3.04,0,5.5,2.46,5.5,5.5s-2.46,5.5-5.5,5.5Z"/>
  <rect class="cls-1" x="220.99" y="111.16" width="35.83" height="132.32" rx="17.91" ry="17.91" transform="translate(416.22 -61.58) rotate(90)"/>
  <rect class="cls-1" x="220.99" y="203.73" width="35.83" height="132.32" rx="17.91" ry="17.91" transform="translate(508.78 30.98) rotate(90)"/>
  <rect class="cls-1" x="225.72" y="168.3" width="35.83" height="110.94" rx="17.91" ry="17.91" transform="translate(467.4 -19.86) rotate(90)"/>
  <circle class="cls-1" cx="124.85" cy="102.88" r="40.39"/>
</svg>