<?xml version="1.0" encoding="UTF-8"?>
<svg id="Layer_1" data-name="Layer 1" xmlns="http://www.w3.org/2000/svg" viewBox="0 0 400 400">
  <defs>
    <style>
      .cls-1 {
        fill: #231f20;
      }
    </style>
  </defs>
  <path class="cls-1" d="m47.99,93.77c-3.04,0-5.5-2.46-5.5-5.5v-38.08c0-3.04,2.46-5.5,5.5-5.5h38.08c3.04,0,5.5,2.46,5.5,5.5s-2.46,5.5-5.5,5.5h-32.58v32.58c0,3.04-2.46,5.5-5.5,5.5Z"/>
  <path class="cls-1" d="m352.01,362.94h-38.08c-3.04,0-5.5-2.46-5.5-5.5s2.46-5.5,5.5-5.5h32.58v-32.58c0-3.04,2.46-5.5,5.5-5.5s5.5,2.46,5.5,5.5v38.08c0,3.04-2.46,5.5-5.5,5.5Z"/>
  <path class="cls-1" d="m353.63,95.39c-3.04,0-5.5-2.46-5.5-5.5v-32.58h-32.58c-3.04,0-5.5-2.46-5.5-5.5s2.46-5.5,5.5-5.5h38.08c3.04,0,5.5,2.46,5.5,5.5v38.08c0,3.04-2.46,5.5-5.5,5.5Z"/>
  <path class="cls-1" d="m84.46,361.33h-38.08c-3.04,0-5.5-2.46-5.5-5.5v-38.08c0-3.04,2.46-5.5,5.5-5.5s5.5,2.46,5.5,5.5v32.58h32.58c3.04,0,5.5,2.46,5.5,5.5s-2.46,5.5-5.5,5.5Z"/>
  <path class="cls-1" d="m175.16,242.09c-8.48,0-15.36-6.88-15.36-15.36v-5.92c0-8.48,6.88-15.36,15.36-15.36h21.97v-4.71c0-22.31-18.08-40.39-40.39-40.39h0c-22.31,0-40.39,18.08-40.39,40.39v101.96c0,22.31,18.08,40.39,40.39,40.39h0c22.31,0,40.39-18.08,40.39-40.39v-60.61h-21.97Z"/>
  <rect class="cls-1" x="227.43" y="156.12" width="36.64" height="135.31" rx="15.36" ry="15.36" transform="translate(469.52 -21.97) rotate(90)"/>
  <rect class="cls-1" x="227.43" y="156.12" width="36.64" height="135.31" rx="15.36" ry="15.36" transform="translate(491.49 447.55) rotate(180)"/>
  <circle class="cls-1" cx="156.74" cy="102.88" r="40.39"/>
</svg>